HIERARCHY
ROOT Hips
{
    OFFSET   0.000000   0.000000   0.000000
    CHANNELS 6 Xposition Yposition Zposition Zrotation Xrotation Yrotation
    JOINT Chest
    {
        OFFSET   0.000000   8.007240   0.000000
        CHANNELS 3 Zrotation Xrotation Yrotation
        JOINT Chest2
        {
            OFFSET   0.000000  22.077100   0.000000
            CHANNELS 3 Zrotation Xrotation Yrotation
            JOINT Neck
            {
                OFFSET   0.000000  23.254800   0.000000
                CHANNELS 3 Zrotation Xrotation Yrotation
                JOINT Head
                {
                    OFFSET   0.000000  14.370000   1.956600
                    CHANNELS 3 Zrotation Xrotation Yrotation
                    End Site
                    {
                        OFFSET   0.000000  19.566000   0.000000
                    }
                }
            }
            JOINT LeftCollar
            {
                OFFSET   3.911900  19.017000  -0.467064
                CHANNELS 3 Zrotation Xrotation Yrotation
                JOINT LeftShoulder
                {
                    OFFSET  10.383700   0.000000   0.000000
                    CHANNELS 3 Zrotation Xrotation Yrotation
                    JOINT LeftElbow
                    {
                        OFFSET  26.662100   0.001476   0.000517
                        CHANNELS 3 Zrotation Xrotation Yrotation
                        JOINT LeftWrist
                        {
                            OFFSET  28.869000  -0.000025  -0.000106
                            CHANNELS 3 Zrotation Xrotation Yrotation
                            JOINT LeftFinger0
                            {
                                OFFSET   2.044660  -2.323460   3.252850
                                CHANNELS 3 Zrotation Xrotation Yrotation
                                JOINT LeftFinger01
                                {
                                    OFFSET   3.088130   0.000000   0.000000
                                    CHANNELS 3 Zrotation Xrotation Yrotation
                                    JOINT LeftFinger02
                                    {
                                        OFFSET   2.639460   0.000000   0.000000
                                        CHANNELS 3 Zrotation Xrotation Yrotation
                                        End Site
                                        {
                                            OFFSET   2.582190   0.000000   0.000000
                                        }
                                    }
                                }
                            }
                            JOINT LeftFinger1
                            {
                                OFFSET   8.364480   0.000000   3.252850
                                CHANNELS 3 Zrotation Xrotation Yrotation
                                JOINT LeftFinger11
                                {
                                    OFFSET   4.646930   0.000000   0.000000
                                    CHANNELS 3 Zrotation Xrotation Yrotation
                                    JOINT LeftFinger12
                                    {
                                        OFFSET   2.323460   0.000000   0.000000
                                        CHANNELS 3 Zrotation Xrotation Yrotation
                                        End Site
                                        {
                                            OFFSET   2.273050   0.000000   0.000000
                                        }
                                    }
                                }
                            }
                            JOINT LeftFinger2
                            {
                                OFFSET   8.364490   0.000015   1.078090
                                CHANNELS 3 Zrotation Xrotation Yrotation
                                JOINT LeftFinger21
                                {
                                    OFFSET   5.111620   0.000000   0.000000
                                    CHANNELS 3 Zrotation Xrotation Yrotation
                                    JOINT LeftFinger22
                                    {
                                        OFFSET   2.788160   0.000016   0.000000
                                        CHANNELS 3 Zrotation Xrotation Yrotation
                                        End Site
                                        {
                                            OFFSET   2.727660   0.000000   0.000000
                                        }
                                    }
                                }
                            }
                            JOINT LeftFinger3
                            {
                                OFFSET   7.899780   0.000017  -1.078090
                                CHANNELS 3 Zrotation Xrotation Yrotation
                                JOINT LeftFinger31
                                {
                                    OFFSET   4.646930   0.000000   0.000000
                                    CHANNELS 3 Zrotation Xrotation Yrotation
                                    JOINT LeftFinger32
                                    {
                                        OFFSET   2.323470   0.000000   0.000000
                                        CHANNELS 3 Zrotation Xrotation Yrotation
                                        End Site
                                        {
                                            OFFSET   2.273050   0.000000   0.000000
                                        }
                                    }
                                }
                            }
                            JOINT LeftFinger4
                            {
                                OFFSET   7.435090   0.000000  -3.252850
                                CHANNELS 3 Zrotation Xrotation Yrotation
                                JOINT LeftFinger41
                                {
                                    OFFSET   3.717550   0.000000   0.000000
                                    CHANNELS 3 Zrotation Xrotation Yrotation
                                    JOINT LeftFinger42
                                    {
                                        OFFSET   1.858770   0.000000   0.000000
                                        CHANNELS 3 Zrotation Xrotation Yrotation
                                        End Site
                                        {
                                            OFFSET   1.818440   0.000000   0.000000
                                        }
                                    }
                                }
                            }
                        }
                    }
                }
            }
            JOINT RightCollar
            {
                OFFSET  -3.911900  19.017000  -0.467063
                CHANNELS 3 Zrotation Xrotation Yrotation
                JOINT RightShoulder
                {
                    OFFSET -10.383700   0.000019   0.000000
                    CHANNELS 3 Zrotation Xrotation Yrotation
                    JOINT RightElbow
                    {
                        OFFSET -26.662100   0.001175   0.000102
                        CHANNELS 3 Zrotation Xrotation Yrotation
                        JOINT RightWrist
                        {
                            OFFSET -28.869000   0.000016  -0.000079
                            CHANNELS 3 Zrotation Xrotation Yrotation
                            JOINT RightFinger0
                            {
                                OFFSET  -2.044660  -2.323490   3.252850
                                CHANNELS 3 Zrotation Xrotation Yrotation
                                JOINT RightFinger01
                                {
                                    OFFSET  -3.088140   0.000000   0.000000
                                    CHANNELS 3 Zrotation Xrotation Yrotation
                                    JOINT RightFinger02
                                    {
                                        OFFSET  -2.639460   0.000000   0.000000
                                        CHANNELS 3 Zrotation Xrotation Yrotation
                                        End Site
                                        {
                                            OFFSET  -2.582190   0.000000   0.000000
                                        }
                                    }
                                }
                            }
                            JOINT RightFinger1
                            {
                                OFFSET  -8.364480   0.000000   3.252850
                                CHANNELS 3 Zrotation Xrotation Yrotation
                                JOINT RightFinger11
                                {
                                    OFFSET  -4.646930   0.000000   0.000000
                                    CHANNELS 3 Zrotation Xrotation Yrotation
                                    JOINT RightFinger12
                                    {
                                        OFFSET  -2.323470   0.000000   0.000000
                                        CHANNELS 3 Zrotation Xrotation Yrotation
                                        End Site
                                        {
                                            OFFSET  -2.273050   0.000000   0.000000
                                        }
                                    }
                                }
                            }
                            JOINT RightFinger2
                            {
                                OFFSET  -8.364480   0.000000   1.078090
                                CHANNELS 3 Zrotation Xrotation Yrotation
                                JOINT RightFinger21
                                {
                                    OFFSET  -5.111620   0.000000   0.000000
                                    CHANNELS 3 Zrotation Xrotation Yrotation
                                    JOINT RightFinger22
                                    {
                                        OFFSET  -2.788160   0.000000   0.000000
                                        CHANNELS 3 Zrotation Xrotation Yrotation
                                        End Site
                                        {
                                            OFFSET  -2.727660   0.000000   0.000000
                                        }
                                    }
                                }
                            }
                            JOINT RightFinger3
                            {
                                OFFSET  -7.899780   0.000000  -1.078090
                                CHANNELS 3 Zrotation Xrotation Yrotation
                                JOINT RightFinger31
                                {
                                    OFFSET  -4.646930   0.000000   0.000000
                                    CHANNELS 3 Zrotation Xrotation Yrotation
                                    JOINT RightFinger32
                                    {
                                        OFFSET  -2.323470   0.000000   0.000000
                                        CHANNELS 3 Zrotation Xrotation Yrotation
                                        End Site
                                        {
                                            OFFSET  -2.273050   0.000000   0.000000
                                        }
                                    }
                                }
                            }
                            JOINT RightFinger4
                            {
                                OFFSET  -7.435090   0.000000  -3.252850
                                CHANNELS 3 Zrotation Xrotation Yrotation
                                JOINT RightFinger41
                                {
                                    OFFSET  -3.717550   0.000000   0.000000
                                    CHANNELS 3 Zrotation Xrotation Yrotation
                                    JOINT RightFinger42
                                    {
                                        OFFSET  -1.858770   0.000000   0.000000
                                        CHANNELS 3 Zrotation Xrotation Yrotation
                                        End Site
                                        {
                                            OFFSET  -1.818440   0.000000   0.000000
                                        }
                                    }
                                }
                            }
                        }
                    }
                }
            }
        }
    }
    JOINT LeftHip
    {
        OFFSET   9.783040   0.000000   0.000000
        CHANNELS 3 Zrotation Xrotation Yrotation
        JOINT LeftKnee
        {
            OFFSET   0.000032 -41.789100  -0.002222
            CHANNELS 3 Zrotation Xrotation Yrotation
            JOINT LeftAnkle
            {
                OFFSET   0.000087 -41.133200  -0.000135
                CHANNELS 3 Zrotation Xrotation Yrotation
                JOINT LeftToe
                {
                    OFFSET   0.000000  -6.358960  14.674500
                    CHANNELS 3 Zrotation Xrotation Yrotation
                    End Site
                    {
                        OFFSET   0.000000   0.000000   3.913200
                    }
                }
            }
        }
    }
    JOINT RightHip
    {
        OFFSET  -9.783040   0.000000   0.000000
        CHANNELS 3 Zrotation Xrotation Yrotation
        JOINT RightKnee
        {
            OFFSET   0.000047 -41.789100  -0.000896
            CHANNELS 3 Zrotation Xrotation Yrotation
            JOINT RightAnkle
            {
                OFFSET  -0.000117 -41.133300  -0.000248
                CHANNELS 3 Zrotation Xrotation Yrotation
                JOINT RightToe
                {
                    OFFSET   0.000000  -6.358970  14.674500
                    CHANNELS 3 Zrotation Xrotation Yrotation
                    End Site
                    {
                        OFFSET   0.000000   0.000000   3.913200
                    }
                }
            }
        }
    }
}
MOTION
Frames: 4
Frame Time:   0.016667
  0.146607  89.561000   0.860303  -1.648830  -4.843140  -2.674790   1.539350   3.926540  -1.606470   3.199900   7.806760  -3.330010   3.516520   3.110040  -0.192494   5.824650   6.234940  12.406800  -7.318350   3.617830   2.885010 -69.211200  17.384000 -10.882500  -2.146740  -6.821360  -7.956380   6.065790  -5.569700   5.211290  42.453900  34.083100 -63.705900 -27.725600  -0.000985  -0.000448  -8.867200  -0.001591  -0.004413 -33.738900   2.915880  -4.355600 -27.695200   0.000440  -0.000339 -19.386600   0.000108   0.005200 -28.247300  -0.359986   0.669877 -33.790100   0.000561  -0.001557 -22.504200   0.000703   0.007433 -27.970400  -2.566460   4.819880 -32.529900   0.001611  -0.000995 -21.664800   0.000708   0.000278 -33.320000  -3.005060   4.559760 -50.159700  -0.004753   0.000530 -33.406300  -0.002399  -0.002949   6.619060   1.473400  12.091000  47.765700   3.940910  37.735800 -26.569800 -22.934300  95.744300 -62.132800  55.451000  44.732500 -49.149700  36.295300  74.126600  12.112100  -0.003798  -0.005267   1.056060   0.000061   0.000166   8.130780   0.568678   3.962860   6.668560   0.003015   0.004660   4.667980   0.004373   0.003266   7.583790   0.385734   2.902830   7.593580   0.002868   0.003065   5.057310  -0.002857   0.003570   8.181950   0.123187   0.882008   8.182880   0.005924  -0.001782   5.449800   0.002126  -0.001174   6.846380   0.102702   0.884770  10.270700   0.003847  -0.000367   6.840290  -0.000964  -0.003256   2.553580   7.569850   1.267560   0.825998   0.067708   2.771440  -4.402130  -3.157850   0.846267  -0.000000   0.000000   0.000000  -0.503309   4.627690   0.590203   0.537540   3.988250  -0.905704  -1.459940  -4.046570  -0.123184   0.000000   0.000000   0.000000
  0.144787  89.559400   0.855381  -1.645060  -4.833590  -2.682490   1.540900   3.921490  -1.607950   3.202960   7.796600  -3.332930   3.523990   3.109340  -0.192656   5.836610   6.233550  12.359700  -7.313640   3.620320   2.873990 -69.193600  17.413400 -10.907800  -2.143080  -6.853940  -7.958380   6.057280  -5.580370   5.204500  42.453600  34.089100 -63.723800 -27.725600  -0.000937  -0.000442  -8.862790  -0.001593  -0.004364 -33.743800   2.922570  -4.364610 -27.699700   0.000397  -0.000350 -19.389800   0.000119   0.005227 -28.249300  -0.352593   0.656244 -33.795200   0.000526  -0.001496 -22.507600   0.000686   0.007445 -27.972000  -2.560940   4.809080 -32.536200   0.001592  -0.001021 -21.669000   0.000756   0.000267 -33.328300  -2.999100   4.549120 -50.171200  -0.004675   0.000523 -33.414000  -0.002333  -0.002956   6.629460   1.475220  12.075900  47.725000   3.963960  37.761400 -26.601400 -22.969900  95.712400 -62.078800  55.437700  44.666800 -49.037900  36.254400  74.115000  12.170500  -0.003751  -0.005179   1.085260   0.000153   0.000251   8.254920   0.575049   3.957700   6.770300   0.003003   0.004621   4.739200   0.004305   0.003228   7.561300   0.377283   2.840760   7.570660   0.002826   0.003066   5.042050  -0.002769   0.003544   8.250060   0.121337   0.888952   8.250950   0.005903  -0.001807   5.495140   0.002094  -0.001195   6.907030   0.100843   0.891759  10.361700   0.003893  -0.000357   6.900890  -0.000984  -0.003248   2.552090   7.593430   1.269550   0.826335  -0.000080   2.777820  -4.403290  -3.123090   0.852261  -0.000000   0.000000   0.000000  -0.510736   4.639820   0.594916   0.540540   3.952250  -0.905670  -1.459790  -4.039410  -0.117957   0.000000   0.000000   0.000000
  0.142474  89.557400   0.849718  -1.641410  -4.825220  -2.687660   1.541520   3.915840  -1.608730   3.204110   7.785270  -3.334360   3.533100   3.114110  -0.192830   5.851960   6.243060  12.309000  -7.307730   3.621210   2.866440 -69.174900  17.446100 -10.936300  -2.142450  -6.884020  -7.959640   6.053520  -5.577750   5.197720  42.462100  34.091900 -63.722400 -27.713600  -0.000896  -0.000422  -8.857200  -0.001586  -0.004323 -33.737700   2.927360  -4.372880 -27.695200   0.000353  -0.000361 -19.386600   0.000129   0.005243 -28.249900  -0.346094   0.646208 -33.789600   0.000493  -0.001439 -22.503900   0.000669   0.007457 -27.973400  -2.555250   4.796830 -32.534100   0.001577  -0.001045 -21.667600   0.000803   0.000262 -33.328900  -2.991580   4.537450 -50.171000  -0.004598   0.000519 -33.413900  -0.002266  -0.002963   6.639720   1.479470  12.062100  47.690600   3.982800  37.780100 -26.615800 -23.009000  95.703400 -61.940500  55.453300  44.546600 -49.050100  36.244200  74.085800  12.190900  -0.003704  -0.005092   1.095460   0.000201   0.000332   8.381830   0.574941   3.911460   6.873970   0.002980   0.004576   4.811780   0.004246   0.003184   7.708120   0.382850   2.820480   7.717530   0.002792   0.003088   5.139860  -0.002675   0.003506   8.319190   0.119010   0.867754   8.320050   0.005878  -0.001843   5.541170   0.002053  -0.001203   6.914350   0.098544   0.870605  10.372600   0.003942  -0.000352   6.908220  -0.001001  -0.003239   2.552450   7.574610   1.264730   0.826492   0.015307   2.784160  -4.406220  -3.129430   0.858483  -0.000000   0.000000  -0.000000  -0.514146   4.647410   0.599212   0.542968   3.927100  -0.905665  -1.461040  -4.034060  -0.113853   0.000000   0.000000  -0.000000
  0.139576  89.555200   0.844770  -1.637810  -4.817520  -2.691320   1.541500   3.909660  -1.609480   3.203880   7.772890  -3.335630   3.542020   3.123840  -0.192990   5.866850   6.261870  12.260600  -7.301320   3.621470   2.860220 -69.159000  17.474500 -10.964200  -2.141010  -6.908430  -7.962420   6.052240  -5.575110   5.192500  42.474200  34.094100 -63.720300 -27.701600  -0.000853  -0.000391  -8.853600  -0.001577  -0.004280 -33.731900   2.930360  -4.377270 -27.690700   0.000310  -0.000374 -19.383500   0.000139   0.005255 -28.250200  -0.342708   0.640295 -33.784000   0.000460  -0.001383 -22.500200   0.000653   0.007468 -27.974700  -2.552040   4.789670 -32.531900   0.001563  -0.001070 -21.666300   0.000850   0.000260 -33.329000  -2.986990   4.530730 -50.170700  -0.004522   0.000513 -33.413700  -0.002200  -0.002970   6.650030   1.483800  12.048100  47.666400   3.999680  37.796200 -26.619100 -23.041400  95.705100 -61.827300  55.461300  44.454700 -49.079900  36.244100  74.064800  12.195600  -0.003657  -0.005005   1.097770   0.000241   0.000412   8.458720   0.574003   3.853190   6.936560   0.002957   0.004529   4.855600   0.004186   0.003138   7.854830   0.388672   2.814800   7.864390   0.002759   0.003117   5.237680  -0.002583   0.003464   8.360910   0.117628   0.836723   8.361720   0.005853  -0.001878   5.568920   0.002009  -0.001210   6.915460   0.097167   0.839590  10.374200   0.003990  -0.000346   6.909270  -0.001018  -0.003230   2.553270   7.555800   1.257360   0.826645   0.030693   2.790170  -4.409250  -3.135770   0.864208   0.000000   0.000000  -0.000000  -0.515669   4.651060   0.601534   0.544159   3.914190  -0.905774  -1.462720  -4.030080  -0.110756   0.000000   0.000000  -0.000000
